<mxfile host="app.diagrams.net" modified="2023-06-09T05:01:46.040Z" agent="Mozilla/5.0 (Windows NT 10.0; Win64; x64) AppleWebKit/537.36 (KHTML, like Gecko) Chrome/114.0.0.0 Safari/537.36" etag="egs17mg_Vi3Rj9vUzSkL" version="21.3.7" type="device">
  <diagram name="Page-1" id="v7sPYXP66oV2i193jRmr">
    <mxGraphModel dx="737" dy="332" grid="1" gridSize="10" guides="1" tooltips="1" connect="1" arrows="1" fold="1" page="1" pageScale="1" pageWidth="1169" pageHeight="827" math="0" shadow="0">
      <root>
        <mxCell id="0" />
        <mxCell id="1" parent="0" />
        <mxCell id="1QQw_ysDj4xrMd3_b_aN-1" value="main" style="rounded=0;whiteSpace=wrap;html=1;" vertex="1" parent="1">
          <mxGeometry x="520" y="60" width="105" height="30" as="geometry" />
        </mxCell>
        <mxCell id="1QQw_ysDj4xrMd3_b_aN-2" value="app.module" style="rounded=0;whiteSpace=wrap;html=1;" vertex="1" parent="1">
          <mxGeometry x="520" y="120" width="105" height="30" as="geometry" />
        </mxCell>
        <mxCell id="1QQw_ysDj4xrMd3_b_aN-6" value="" style="endArrow=none;dashed=1;html=1;dashPattern=1 3;strokeWidth=2;rounded=0;exitX=1;exitY=0.5;exitDx=0;exitDy=0;" edge="1" parent="1" source="1QQw_ysDj4xrMd3_b_aN-29" target="1QQw_ysDj4xrMd3_b_aN-30">
          <mxGeometry width="50" height="50" relative="1" as="geometry">
            <mxPoint x="625" y="215" as="sourcePoint" />
            <mxPoint x="720" y="215" as="targetPoint" />
          </mxGeometry>
        </mxCell>
        <mxCell id="1QQw_ysDj4xrMd3_b_aN-10" value="user.repository" style="rounded=0;whiteSpace=wrap;html=1;" vertex="1" parent="1">
          <mxGeometry x="712.5" y="334" width="105" height="30" as="geometry" />
        </mxCell>
        <mxCell id="1QQw_ysDj4xrMd3_b_aN-11" value="" style="endArrow=classic;html=1;rounded=0;exitX=0.5;exitY=1;exitDx=0;exitDy=0;entryX=0.5;entryY=0;entryDx=0;entryDy=0;" edge="1" parent="1" source="1QQw_ysDj4xrMd3_b_aN-1" target="1QQw_ysDj4xrMd3_b_aN-2">
          <mxGeometry width="50" height="50" relative="1" as="geometry">
            <mxPoint x="710" y="130" as="sourcePoint" />
            <mxPoint x="760" y="80" as="targetPoint" />
          </mxGeometry>
        </mxCell>
        <mxCell id="1QQw_ysDj4xrMd3_b_aN-12" value="" style="endArrow=classic;html=1;rounded=0;" edge="1" parent="1">
          <mxGeometry width="50" height="50" relative="1" as="geometry">
            <mxPoint x="450" y="170" as="sourcePoint" />
            <mxPoint x="449.66666666666674" y="200" as="targetPoint" />
          </mxGeometry>
        </mxCell>
        <mxCell id="1QQw_ysDj4xrMd3_b_aN-13" value="" style="endArrow=none;html=1;rounded=0;entryX=0.5;entryY=1;entryDx=0;entryDy=0;" edge="1" parent="1" target="1QQw_ysDj4xrMd3_b_aN-2">
          <mxGeometry width="50" height="50" relative="1" as="geometry">
            <mxPoint x="573" y="170" as="sourcePoint" />
            <mxPoint x="370" y="120" as="targetPoint" />
          </mxGeometry>
        </mxCell>
        <mxCell id="1QQw_ysDj4xrMd3_b_aN-14" value="" style="endArrow=none;html=1;rounded=0;" edge="1" parent="1">
          <mxGeometry width="50" height="50" relative="1" as="geometry">
            <mxPoint x="450" y="170" as="sourcePoint" />
            <mxPoint x="770" y="170" as="targetPoint" />
          </mxGeometry>
        </mxCell>
        <mxCell id="1QQw_ysDj4xrMd3_b_aN-15" value="" style="endArrow=classic;html=1;rounded=0;" edge="1" parent="1">
          <mxGeometry width="50" height="50" relative="1" as="geometry">
            <mxPoint x="572.67" y="170" as="sourcePoint" />
            <mxPoint x="572.3366666666667" y="200" as="targetPoint" />
          </mxGeometry>
        </mxCell>
        <mxCell id="1QQw_ysDj4xrMd3_b_aN-16" value="" style="endArrow=classic;html=1;rounded=0;" edge="1" parent="1">
          <mxGeometry width="50" height="50" relative="1" as="geometry">
            <mxPoint x="770.33" y="170" as="sourcePoint" />
            <mxPoint x="769.9966666666668" y="200" as="targetPoint" />
          </mxGeometry>
        </mxCell>
        <mxCell id="1QQw_ysDj4xrMd3_b_aN-21" value="user.entity" style="rounded=0;whiteSpace=wrap;html=1;" vertex="1" parent="1">
          <mxGeometry x="642.5" y="384" width="105" height="30" as="geometry" />
        </mxCell>
        <mxCell id="1QQw_ysDj4xrMd3_b_aN-22" value="user.dto" style="rounded=0;whiteSpace=wrap;html=1;" vertex="1" parent="1">
          <mxGeometry x="782.5" y="384" width="105" height="30" as="geometry" />
        </mxCell>
        <mxCell id="1QQw_ysDj4xrMd3_b_aN-23" value="" style="endArrow=classic;html=1;rounded=0;exitX=0.5;exitY=0;exitDx=0;exitDy=0;entryX=0.25;entryY=1;entryDx=0;entryDy=0;" edge="1" parent="1" source="1QQw_ysDj4xrMd3_b_aN-21" target="1QQw_ysDj4xrMd3_b_aN-10">
          <mxGeometry width="50" height="50" relative="1" as="geometry">
            <mxPoint x="582.5" y="364" as="sourcePoint" />
            <mxPoint x="632.5" y="314" as="targetPoint" />
          </mxGeometry>
        </mxCell>
        <mxCell id="1QQw_ysDj4xrMd3_b_aN-24" value="" style="endArrow=classic;html=1;rounded=0;exitX=0.5;exitY=0;exitDx=0;exitDy=0;entryX=0.75;entryY=1;entryDx=0;entryDy=0;" edge="1" parent="1" source="1QQw_ysDj4xrMd3_b_aN-22" target="1QQw_ysDj4xrMd3_b_aN-10">
          <mxGeometry width="50" height="50" relative="1" as="geometry">
            <mxPoint x="852.5" y="364" as="sourcePoint" />
            <mxPoint x="902.5" y="314" as="targetPoint" />
          </mxGeometry>
        </mxCell>
        <mxCell id="1QQw_ysDj4xrMd3_b_aN-25" value="" style="rounded=0;whiteSpace=wrap;html=1;" vertex="1" parent="1">
          <mxGeometry x="370" y="200" width="120" height="105" as="geometry" />
        </mxCell>
        <mxCell id="1QQw_ysDj4xrMd3_b_aN-26" value="app.controller" style="rounded=0;whiteSpace=wrap;html=1;" vertex="1" parent="1">
          <mxGeometry x="377.5" y="215" width="105" height="30" as="geometry" />
        </mxCell>
        <mxCell id="1QQw_ysDj4xrMd3_b_aN-27" value="app.service" style="rounded=0;whiteSpace=wrap;html=1;" vertex="1" parent="1">
          <mxGeometry x="377.5" y="269" width="105" height="30" as="geometry" />
        </mxCell>
        <mxCell id="1QQw_ysDj4xrMd3_b_aN-28" value="" style="endArrow=classic;html=1;rounded=0;exitX=0.5;exitY=1;exitDx=0;exitDy=0;" edge="1" parent="1" source="1QQw_ysDj4xrMd3_b_aN-26" target="1QQw_ysDj4xrMd3_b_aN-27">
          <mxGeometry width="50" height="50" relative="1" as="geometry">
            <mxPoint x="327.5" y="245" as="sourcePoint" />
            <mxPoint x="377.5" y="195" as="targetPoint" />
          </mxGeometry>
        </mxCell>
        <mxCell id="1QQw_ysDj4xrMd3_b_aN-29" value="" style="rounded=0;whiteSpace=wrap;html=1;" vertex="1" parent="1">
          <mxGeometry x="512.5" y="200" width="120" height="105" as="geometry" />
        </mxCell>
        <mxCell id="1QQw_ysDj4xrMd3_b_aN-30" value="" style="rounded=0;whiteSpace=wrap;html=1;" vertex="1" parent="1">
          <mxGeometry x="705" y="200" width="120" height="105" as="geometry" />
        </mxCell>
        <mxCell id="1QQw_ysDj4xrMd3_b_aN-31" value="auth.controller" style="rounded=0;whiteSpace=wrap;html=1;" vertex="1" parent="1">
          <mxGeometry x="520" y="212.5" width="105" height="30" as="geometry" />
        </mxCell>
        <mxCell id="1QQw_ysDj4xrMd3_b_aN-32" value="auth.service" style="rounded=0;whiteSpace=wrap;html=1;" vertex="1" parent="1">
          <mxGeometry x="520" y="268.5" width="105" height="30" as="geometry" />
        </mxCell>
        <mxCell id="1QQw_ysDj4xrMd3_b_aN-33" value="" style="endArrow=classic;html=1;rounded=0;exitX=0.5;exitY=1;exitDx=0;exitDy=0;entryX=0.5;entryY=0;entryDx=0;entryDy=0;" edge="1" parent="1" source="1QQw_ysDj4xrMd3_b_aN-31" target="1QQw_ysDj4xrMd3_b_aN-32">
          <mxGeometry width="50" height="50" relative="1" as="geometry">
            <mxPoint x="660" y="312.5" as="sourcePoint" />
            <mxPoint x="710" y="262.5" as="targetPoint" />
          </mxGeometry>
        </mxCell>
        <mxCell id="1QQw_ysDj4xrMd3_b_aN-34" value="user.controller" style="rounded=0;whiteSpace=wrap;html=1;" vertex="1" parent="1">
          <mxGeometry x="712.5" y="212.5" width="105" height="30" as="geometry" />
        </mxCell>
        <mxCell id="1QQw_ysDj4xrMd3_b_aN-35" value="user.service" style="rounded=0;whiteSpace=wrap;html=1;" vertex="1" parent="1">
          <mxGeometry x="712.5" y="268.5" width="105" height="30" as="geometry" />
        </mxCell>
        <mxCell id="1QQw_ysDj4xrMd3_b_aN-36" value="" style="endArrow=classic;html=1;rounded=0;exitX=0.5;exitY=1;exitDx=0;exitDy=0;entryX=0.5;entryY=0;entryDx=0;entryDy=0;" edge="1" parent="1" source="1QQw_ysDj4xrMd3_b_aN-34" target="1QQw_ysDj4xrMd3_b_aN-35">
          <mxGeometry width="50" height="50" relative="1" as="geometry">
            <mxPoint x="632.5" y="312.5" as="sourcePoint" />
            <mxPoint x="682.5" y="262.5" as="targetPoint" />
          </mxGeometry>
        </mxCell>
        <mxCell id="1QQw_ysDj4xrMd3_b_aN-37" value="" style="endArrow=classic;html=1;rounded=0;exitX=0.5;exitY=1;exitDx=0;exitDy=0;entryX=0.5;entryY=0;entryDx=0;entryDy=0;" edge="1" parent="1" source="1QQw_ysDj4xrMd3_b_aN-35" target="1QQw_ysDj4xrMd3_b_aN-10">
          <mxGeometry width="50" height="50" relative="1" as="geometry">
            <mxPoint x="765" y="293" as="sourcePoint" />
            <mxPoint x="770" y="330" as="targetPoint" />
          </mxGeometry>
        </mxCell>
      </root>
    </mxGraphModel>
  </diagram>
</mxfile>
